{"scene":0,"scenes":[{"nodes":[0]}],"asset":{"version":"2.0","generator":"https://github.com/mikedh/trimesh"},"accessors":[{"componentType":5125,"type":"SCALAR","bufferView":0,"count":14574,"max":[2454],"min":[0]},{"componentType":5126,"type":"VEC3","byteOffset":0,"bufferView":1,"count":2455,"max":[186.5,91.5,7.5],"min":[-231.5,-139.5,1.5]},{"componentType":5126,"count":2455,"type":"VEC3","byteOffset":0,"bufferView":2,"max":[1.0,1.0,1.0],"min":[-1.0,-1.0,-1.0]}],"meshes":[{"name":"geometry_0","extras":{"processed":true},"primitives":[{"attributes":{"POSITION":1,"NORMAL":2},"indices":0,"mode":4}]}],"nodes":[{"name":"world","children":[1]},{"name":"geometry_0","mesh":0}],"buffers":[{"uri":"gltf_buffer_0.bin","byteLength":58296},{"uri":"gltf_buffer_1.bin","byteLength":29460},{"uri":"gltf_buffer_2.bin","byteLength":29460}],"bufferViews":[{"buffer":0,"byteOffset":0,"byteLength":58296},{"buffer":1,"byteOffset":0,"byteLength":29460},{"buffer":2,"byteOffset":0,"byteLength":29460}]}