# Blender 3.6.5
# www.blender.org
mtllib fish_tail3.mtl
o fish
v 55.077759 0.000010 -139.467758
v 198.529999 -0.000011 -166.419815
v 55.077759 -11.705407 -136.787918
v 198.529938 -11.275415 -163.222153
v 55.077759 -22.960993 -128.851425
v 198.530029 -22.117510 -153.751877
v 55.077759 -33.334194 -115.963203
v 55.077759 -42.426384 -98.618607
v 55.077759 -49.888153 -77.484138
v 55.077759 -55.432751 -53.372005
v 55.077759 -58.847095 -27.208811
v 55.077759 -59.999977 0.000000
v 55.077759 -58.847095 27.208811
v 55.077759 -55.432751 53.372009
v 55.077759 -49.888153 77.484138
v 55.077759 -42.426384 98.618607
v 55.077759 -33.334194 115.963203
v 55.077759 -22.960993 128.851425
v 198.530029 -22.117510 153.751877
v 55.077759 -11.705407 136.787918
v 198.529938 -11.275415 163.222153
v 55.077759 0.000010 139.467758
v 198.529968 -0.000011 166.419815
v 55.077759 11.705428 136.787918
v 198.529907 11.275392 163.222153
v 55.077759 22.961014 128.851425
v 198.529968 22.117491 153.751877
v 55.077759 33.334221 115.963203
v 55.077759 42.426414 98.618607
v 55.077759 49.888184 77.484138
v 55.077759 55.432777 53.372009
v 55.077759 58.847122 27.208811
v 55.077759 60.000011 0.000000
v 55.077759 58.847122 -27.208811
v 55.077759 55.432777 -53.372005
v 55.077759 49.888184 -77.484138
v 55.077759 42.426414 -98.618607
v 55.077759 33.334221 -115.963203
v 55.077759 22.961014 -128.851425
v 198.529968 22.117491 -153.751877
v 55.077759 11.705428 -136.787918
v 198.529907 11.275392 -163.222153
v 193.388336 -32.018040 -139.207642
v 198.530029 -22.192316 -153.636749
v 193.312439 -32.122082 -138.994614
v 192.874634 -32.665096 -137.766037
v 189.115479 -40.729702 -119.177605
v 189.007050 -40.896717 -118.641411
v 184.149414 -47.897831 -94.621101
v 183.946686 -48.107510 -93.618790
v 178.961670 -53.262688 -66.340195
v 179.217255 -52.535465 -70.232521
v 178.858246 -53.474380 -64.764763
v 176.901718 -56.632545 -34.967670
v 176.777435 -56.776867 -33.074947
v 174.748077 -57.844494 -2.168339
v 174.605713 -57.898499 -0.000000
v 174.605713 -57.898499 0.000000
v 176.646683 -56.826546 31.083376
v 176.777466 -56.776867 33.074947
v 178.744751 -53.606377 63.036369
v 178.858246 -53.474380 64.764763
v 179.217255 -52.454319 70.232521
v 183.708344 -48.268387 92.440186
v 183.946686 -48.107510 93.618790
v 188.871490 -41.037468 117.971123
v 189.007050 -40.896717 118.641418
v 193.206665 -32.216587 138.697815
v 192.874634 -32.626133 137.766037
v 193.312439 -32.122082 138.994614
v 198.530029 -22.192303 153.636765
v 193.388336 32.018017 139.207626
v 198.529968 22.192379 153.636612
v 193.312439 32.122059 138.994614
v 192.874634 32.665073 137.766037
v 189.115479 40.729679 119.177612
v 189.007050 40.896694 118.641418
v 184.149384 47.897808 94.621101
v 183.946655 48.107487 93.618790
v 179.217255 52.535442 70.232521
v 178.961670 53.262665 66.340195
v 178.858215 53.474358 64.764763
v 176.901733 56.632523 34.967670
v 176.777466 56.776844 33.074947
v 174.748077 57.844471 2.168339
v 174.605713 57.898476 -0.000000
v 174.605713 57.898476 0.000000
v 176.646683 56.826523 -31.083372
v 176.777435 56.776844 -33.074947
v 178.744720 53.606354 -63.036369
v 178.858215 53.474358 -64.764763
v 179.217255 52.454296 -70.232521
v 183.708313 48.268364 -92.440186
v 183.946655 48.107487 -93.618790
v 188.871490 41.037445 -117.971123
v 189.007050 40.896694 -118.641418
v 192.874634 32.626110 -137.766037
v 193.206665 32.216564 -138.697815
v 193.312439 32.122059 -138.994614
v 198.529968 22.192390 -153.636597
v -72.505951 0.000025 -146.375427
v -72.505951 -11.705392 -143.562866
v -72.505951 -22.960979 -135.233261
v -72.505951 -33.334179 -121.706711
v -72.505951 -42.426369 -103.503052
v -72.505951 -49.888142 -81.321838
v -72.505951 -55.432735 -56.015453
v -72.505951 -58.847080 -28.556429
v -72.505951 -59.999966 -0.000001
v -72.505951 -58.847080 28.556427
v -72.505951 -55.432735 56.015457
v -72.505951 -49.888142 81.321823
v -72.505951 -42.426369 103.503044
v -72.505951 -33.334179 121.706711
v -72.505951 -22.960979 135.233261
v -72.505951 42.426426 103.503044
v -72.505951 49.888199 81.321823
v -72.505951 55.432793 56.015457
v -72.505951 58.847137 28.556427
v -72.505951 60.000015 -0.000001
v -72.505951 58.847137 -28.556429
v -72.505951 55.432793 -56.015453
v -72.505951 49.888199 -81.321838
v -72.505951 42.426426 -103.503052
v -72.505951 33.334236 -121.706711
v -72.505951 22.961029 -135.233261
v -72.505951 11.705443 -143.562866
v -72.505951 -11.705392 143.562866
v -72.505951 0.000025 146.375427
v -72.505951 11.705443 143.562866
v -72.505951 22.961029 135.233261
v -72.505951 33.334236 121.706711
v -194.474655 0.000061 -174.155640
v -194.474655 -11.705358 -170.809296
v -194.474655 -22.960947 -160.898834
v -194.474655 -33.334148 -144.805130
v -194.474655 -42.426342 -123.146637
v -194.474655 -49.888111 -96.755707
v -194.474655 -55.432705 -66.646484
v -194.474655 -58.847050 -33.976082
v -194.474655 -59.999935 -0.000001
v -194.474655 -58.847050 33.976082
v -194.474655 -55.432705 66.646484
v -194.474655 -49.888111 96.755692
v -194.474655 -42.426342 123.146637
v -194.474655 -33.334148 144.805130
v -194.474655 -22.960947 160.898834
v -194.474655 42.426464 123.146637
v -194.474655 49.888233 96.755692
v -194.474655 55.432827 66.646484
v -194.474655 58.847172 33.976082
v -194.474655 60.000053 -0.000001
v -194.474655 58.847172 -33.976082
v -194.474655 55.432827 -66.646484
v -194.474655 49.888233 -96.755707
v -194.474655 42.426464 -123.146637
v -194.474655 33.334270 -144.805130
v -194.474655 22.961065 -160.898834
v -194.474655 11.705480 -170.809296
v -194.474655 -11.705358 170.809296
v -194.474655 0.000061 174.155640
v -194.474655 11.705480 170.809296
v -194.474655 22.961065 160.898834
v -194.474655 33.334270 144.805130
v -331.719513 -0.000029 -206.938690
v -331.719513 -11.705446 -202.962418
v -331.719513 -22.961035 -191.186417
v -331.719513 -33.334240 -172.063232
v -331.719513 -42.426430 -146.327744
v -331.719513 -49.888199 -114.968987
v -331.719513 -55.432796 -79.192017
v -331.719513 -58.847141 -40.371738
v -331.719513 -60.000023 -0.000001
v -331.719513 -58.847141 40.371738
v -331.719513 -55.432796 79.192017
v -331.719513 -49.888199 114.968971
v -331.719513 -42.426430 146.327744
v -331.719513 -33.334240 172.063232
v -331.719513 -22.961035 191.186417
v -331.719513 42.426376 146.327744
v -331.719513 49.888145 114.968971
v -331.719513 55.432739 79.192017
v -331.719513 58.847084 40.371738
v -331.719513 59.999966 -0.000001
v -331.719513 58.847084 -40.371738
v -331.719513 55.432739 -79.192017
v -331.719513 49.888145 -114.968987
v -331.719513 42.426376 -146.327744
v -331.719513 33.334183 -172.063232
v -331.719513 22.960976 -191.186417
v -331.719513 11.705391 -202.962418
v -331.719513 -11.705446 202.962418
v -331.719513 -0.000029 206.938690
v -331.719513 11.705391 202.962418
v -331.719513 22.960976 191.186417
v -331.719513 33.334183 172.063232
vn -0.1771 -0.2439 -0.9535
vn -0.1365 -0.6130 -0.7782
vn -0.0968 -0.7924 -0.6023
vn -0.0598 -0.8994 -0.4331
vn -0.0304 -0.9516 -0.3059
vn -0.0080 -0.9792 -0.2026
vn 0.0080 -0.9933 -0.1150
vn 0.0163 -0.9992 -0.0371
vn 0.0165 -0.9992 0.0371
vn 0.0084 -0.9933 0.1150
vn -0.0074 -0.9793 0.2025
vn -0.0299 -0.9516 0.3058
vn -0.0594 -0.8994 0.4331
vn -0.0967 -0.7924 0.6023
vn -0.1365 -0.6130 0.7782
vn -0.1771 -0.2439 0.9535
vn -0.1771 0.2439 0.9535
vn -0.0968 0.7924 0.6023
vn -0.0598 0.8994 0.4331
vn -0.0304 0.9516 0.3059
vn -0.0080 0.9792 0.2026
vn 0.0080 0.9933 0.1150
vn 0.0163 0.9992 0.0371
vn 0.0165 0.9992 -0.0371
vn 0.0084 0.9933 -0.1150
vn -0.0074 0.9793 -0.2025
vn -0.0299 0.9516 -0.3058
vn -0.0594 0.8994 -0.4331
vn -0.0967 0.7924 -0.6023
vn 1.0000 -0.0000 -0.0000
vn -0.1365 0.6130 -0.7782
vn -0.1771 0.2439 -0.9535
vn 0.9420 -0.0000 -0.3357
vn 0.9802 -0.0000 -0.1982
vn 0.9979 -0.0000 -0.0655
vn 0.9979 -0.0000 0.0655
vn 0.9802 -0.0000 0.1982
vn 0.9420 -0.0000 0.3357
vn 0.0111 -0.9454 -0.3257
vn 0.0210 -0.9803 0.1962
vn 0.0190 -0.8901 -0.4553
vn 0.0293 0.7861 0.6174
vn 0.0190 0.8901 -0.4553
vn 0.0020 -0.9920 -0.1263
vn 0.0056 -0.9757 -0.2189
vn 0.0190 0.8901 0.4553
vn 0.0002 -0.9991 0.0413
vn 0.0002 -0.9991 -0.0413
vn 0.0056 0.9757 0.2189
vn 0.0418 0.5852 -0.8098
vn 0.0056 -0.9757 0.2189
vn 0.0020 -0.9920 0.1263
vn 0.0002 0.9991 0.0413
vn 0.0190 -0.8901 0.4553
vn 0.0111 -0.9454 0.3257
vn 0.0020 0.9920 -0.1263
vn 0.0293 -0.7861 0.6174
vn 0.0111 0.9454 -0.3257
vn 0.0418 -0.5852 0.8098
vn 0.0293 0.7861 -0.6174
vn 0.0521 -0.2281 0.9722
vn 0.0521 0.2281 -0.9722
vn 0.0521 -0.2281 -0.9722
vn 0.0521 0.2281 0.9722
vn 0.0111 0.9454 0.3257
vn 0.0418 -0.5852 -0.8098
vn 0.0020 0.9920 0.1263
vn 0.0418 0.5852 0.8098
vn 0.0002 0.9991 -0.0413
vn 0.0293 -0.7861 -0.6174
vn 0.0056 0.9757 -0.2189
vn 0.2202 -0.2912 0.9310
vn 0.0074 -0.9936 0.1128
vn 0.0725 -0.9074 0.4139
vn 0.0422 -0.9550 0.2934
vn 0.1662 -0.6208 0.7662
vn 0.1139 -0.8137 0.5700
vn 0.2131 -0.2486 0.9449
vn 0.0422 0.9550 0.2934
vn 0.2131 0.2486 0.9449
vn 0.0074 0.9936 0.1128
vn 0.1662 0.6208 0.7662
vn 0.0008 0.9993 -0.0368
vn 0.1139 0.8137 0.5700
vn 0.0210 0.9803 -0.1962
vn 0.0725 0.9074 0.4139
vn 0.0725 0.9074 -0.4139
vn 0.2131 -0.2486 -0.9449
vn 0.0210 0.9803 0.1962
vn 0.1662 0.6208 -0.7662
vn 0.1662 -0.6208 -0.7662
vn 0.0008 0.9993 0.0368
vn 0.2131 0.2486 -0.9449
vn 0.1139 -0.8137 -0.5700
vn 0.0074 0.9936 -0.1128
vn 0.0422 -0.9550 -0.2934
vn 0.0725 -0.9074 -0.4139
vn 0.0422 0.9550 -0.2934
vn 0.0074 -0.9936 -0.1128
vn 0.0210 -0.9803 -0.1962
vn 0.1139 0.8137 -0.5700
vn 0.0008 -0.9993 0.0368
vn 0.0008 -0.9993 -0.0368
vn 0.0377 0.9675 0.2500
vn 0.2202 0.2912 0.9310
vn 0.0066 0.9954 0.0951
vn 0.1617 0.6847 0.7107
vn 0.0007 0.9995 -0.0310
vn 0.1058 0.8568 0.5047
vn 0.0186 0.9860 -0.1659
vn 0.0657 0.9316 0.3574
vn 0.0657 0.9316 -0.3574
vn 0.2202 -0.2912 -0.9310
vn 0.0186 0.9860 0.1659
vn 0.1617 0.6847 -0.7107
vn 0.1617 -0.6847 -0.7107
vn 0.0007 0.9995 0.0310
vn 0.2202 0.2912 -0.9310
vn 0.1058 -0.8568 -0.5047
vn 0.0066 0.9954 -0.0951
vn 0.0377 -0.9675 -0.2500
vn 0.0657 -0.9316 -0.3574
vn 0.0377 0.9675 -0.2500
vn 0.0066 -0.9954 -0.0951
vn 0.0186 -0.9860 -0.1659
vn 0.1058 0.8568 -0.5047
vn 0.0007 -0.9995 0.0310
vn 0.0007 -0.9995 -0.0310
vn 0.0186 -0.9860 0.1659
vn 0.0066 -0.9954 0.0951
vn 0.0657 -0.9316 0.3574
vn 0.0377 -0.9675 0.2500
vn 0.1617 -0.6847 0.7107
vn 0.1058 -0.8568 0.5047
vn -0.1365 0.6130 0.7782
vt 1.000000 0.500000
vt 1.000000 1.000000
vt 0.968750 1.000000
vt 0.968750 0.500000
vt 0.937500 1.000000
vt 0.937500 0.500000
vt 0.906250 0.500000
vt 0.937266 1.000000
vt 0.906592 0.994987
vt 0.906250 0.994920
vt 0.875000 0.500000
vt 0.904327 0.994492
vt 0.875658 0.990822
vt 0.875000 0.990728
vt 0.843750 0.500000
vt 0.844816 0.985984
vt 0.843750 0.985801
vt 0.812500 0.500000
vt 0.818227 0.981187
vt 0.814040 0.980936
vt 0.812500 0.980847
vt 0.781250 0.500000
vt 0.783041 0.978936
vt 0.781250 0.978821
vt 0.750000 0.976706
vt 0.750000 0.500000
vt 0.752026 0.976843
vt 0.718750 0.978821
vt 0.718750 0.500000
vt 0.750000 0.976706
vt 0.720616 0.978694
vt 0.687500 0.980847
vt 0.687500 0.500000
vt 0.689138 0.980741
vt 0.656250 0.985801
vt 0.656250 0.500000
vt 0.681624 0.981199
vt 0.657417 0.985578
vt 0.625716 0.990606
vt 0.625000 0.990728
vt 0.625000 0.500000
vt 0.593750 0.500000
vt 0.595575 0.994500
vt 0.594122 0.994824
vt 0.593750 0.994920
vt 0.562734 1.000000
vt 0.562500 1.000000
vt 0.562500 0.500000
vt 0.531250 1.000000
vt 0.531250 0.500000
vt 0.500000 1.000000
vt 0.500000 0.500000
vt 0.468750 1.000000
vt 0.468750 0.500000
vt 0.406250 0.994920
vt 0.406250 0.500000
vt 0.437500 0.500000
vt 0.437500 1.000000
vt 0.437266 1.000000
vt 0.406592 0.994988
vt 0.375000 0.990728
vt 0.375000 0.500000
vt 0.404327 0.994492
vt 0.375658 0.990822
vt 0.343750 0.985801
vt 0.343750 0.500000
vt 0.344816 0.985984
vt 0.312500 0.980847
vt 0.312500 0.500000
vt 0.318227 0.981187
vt 0.314040 0.980936
vt 0.281250 0.978821
vt 0.281250 0.500000
vt 0.283041 0.978936
vt 0.250000 0.976706
vt 0.250000 0.500000
vt 0.252026 0.976843
vt 0.218750 0.500000
vt 0.220616 0.978695
vt 0.218750 0.978821
vt 0.187500 0.500000
vt 0.189138 0.980741
vt 0.187500 0.980847
vt 0.156250 0.500000
vt 0.181624 0.981199
vt 0.157417 0.985578
vt 0.156250 0.985801
vt 0.125000 0.500000
vt 0.125716 0.990606
vt 0.125000 0.990728
vt 0.093750 0.994920
vt 0.093750 0.500000
vt 0.095575 0.994500
vt 0.094122 0.994824
vt 0.062500 1.000000
vt 0.062500 0.500000
vt 0.062734 1.000000
vt 0.157845 0.028435
vt 0.158156 0.028269
vt 0.203178 0.014612
vt 0.250000 0.010000
vt 0.296822 0.014612
vt 0.341844 0.028269
vt 0.342155 0.028435
vt 0.341844 0.471731
vt 0.296822 0.485388
vt 0.250000 0.490000
vt 0.203178 0.485388
vt 0.158156 0.471731
vt 0.157845 0.471565
vt 0.342155 0.471565
vt 0.031250 1.000000
vt 0.031250 0.500000
vt 0.000000 1.000000
vt 0.000000 0.500000
vt 0.313117 0.783461
vt 0.313224 0.783352
vt 0.320469 0.773117
vt 0.320469 0.726883
vt 0.313117 0.716540
vt 0.312968 0.716441
vt 0.312500 0.716014
vt 0.312500 0.784026
vt 0.292072 0.800112
vt 0.292535 0.799894
vt 0.303650 0.792601
vt 0.303899 0.792427
vt 0.303650 0.707399
vt 0.303340 0.707253
vt 0.292072 0.699888
vt 0.291526 0.699720
vt 0.281250 0.695360
vt 0.281250 0.804724
vt 0.279518 0.805482
vt 0.278817 0.694298
vt 0.278048 0.694160
vt 0.264717 0.690858
vt 0.263831 0.690806
vt 0.250000 0.689689
vt 0.250000 0.810311
vt 0.250965 0.810254
vt 0.264717 0.809143
vt 0.265559 0.808993
vt 0.278817 0.805702
vt 0.249035 0.689745
vt 0.235283 0.690857
vt 0.234441 0.691007
vt 0.221183 0.694298
vt 0.220482 0.694518
vt 0.218750 0.695276
vt 0.218750 0.804640
vt 0.221183 0.805702
vt 0.221952 0.805839
vt 0.235283 0.809142
vt 0.236169 0.809195
vt 0.207465 0.700106
vt 0.196350 0.707399
vt 0.196102 0.707573
vt 0.187500 0.715974
vt 0.187500 0.783986
vt 0.196350 0.792601
vt 0.196660 0.792747
vt 0.207928 0.800112
vt 0.208474 0.800279
vt 0.207928 0.699888
vt 0.186883 0.716539
vt 0.186776 0.716648
vt 0.179531 0.726883
vt 0.179531 0.773117
vt 0.186883 0.783461
vt 0.187032 0.783559
s 0
f 1/1/1 2/2/1 4/3/1 3/4/1
f 3/4/2 4/3/2 6/5/2 5/6/2
f 7/7/3 5/6/3 6/5/3 44/8/3 43/9/3 45/10/3
f 8/11/4 7/7/4 45/10/4 46/12/4 47/13/4 48/14/4
f 9/15/5 8/11/5 48/14/5 49/16/5 50/17/5
f 10/18/6 9/15/6 50/17/6 52/19/6 51/20/6 53/21/6
f 11/22/7 10/18/7 53/21/7 54/23/7 55/24/7
f 57/25/8 12/26/8 11/22/8 55/24/8 56/27/8
f 60/28/9 13/29/9 12/26/9 57/25/9 58/30/9 59/31/9
f 62/32/10 14/33/10 13/29/10 60/28/10 61/34/10
f 65/35/11 15/36/11 14/33/11 62/32/11 63/37/11 64/38/11
f 66/39/12 67/40/12 16/41/12 15/36/12 65/35/12
f 17/42/13 16/41/13 67/40/13 69/43/13 68/44/13 70/45/13
f 71/46/14 19/47/14 18/48/14 17/42/14 70/45/14
f 18/48/15 19/47/15 21/49/15 20/50/15
f 20/50/16 21/49/16 23/51/16 22/52/16
f 22/52/17 23/51/17 25/53/17 24/54/17
f 74/55/18 28/56/18 26/57/18 27/58/18 73/59/18 72/60/18
f 77/61/19 29/62/19 28/56/19 74/55/19 75/63/19 76/64/19
f 79/65/20 30/66/20 29/62/20 77/61/20 78/67/20
f 82/68/21 31/69/21 30/66/21 79/65/21 80/70/21 81/71/21
f 84/72/22 32/73/22 31/69/22 82/68/22 83/74/22
f 86/75/23 33/76/23 32/73/23 84/72/23 85/77/23 87/75/23
f 34/78/24 33/76/24 86/75/24 88/79/24 89/80/24
f 35/81/25 34/78/25 89/80/25 90/82/25 91/83/25
f 36/84/26 35/81/26 91/83/26 92/85/26 93/86/26 94/87/26
f 37/88/27 36/84/27 94/87/27 95/89/27 96/90/27
f 99/91/28 38/92/28 37/88/28 96/90/28 97/93/28 98/94/28
f 40/95/29 39/96/29 38/92/29 99/91/29 100/97/29
f 73/98/30 27/99/30 25/100/30 23/101/30 21/102/30 19/103/30 71/104/30
f 6/105/30 4/106/30 2/107/30 42/108/30 40/109/30 100/110/30 44/111/30
f 39/96/31 40/95/31 42/112/31 41/113/31
f 41/113/32 42/112/32 2/114/32 1/115/32
f 8/11/39 9/15/39 106/15/39 105/11/39
f 111/33/40 112/36/40 144/36/40 143/33/40
f 7/7/41 8/11/41 105/11/41 104/7/41
f 26/57/42 28/56/42 132/56/42 131/57/42
f 37/88/43 38/92/43 125/92/43 124/88/43
f 10/18/44 11/22/44 108/22/44 107/18/44
f 9/15/45 10/18/45 107/18/45 106/15/45
f 28/56/46 29/62/46 116/62/46 132/56/46
f 12/26/47 13/29/47 110/29/47 109/26/47
f 11/22/48 12/26/48 109/26/48 108/22/48
f 30/66/49 31/69/49 118/69/49 117/66/49
f 39/96/50 41/113/50 127/113/50 126/96/50
f 14/33/51 15/36/51 112/36/51 111/33/51
f 13/29/52 14/33/52 111/33/52 110/29/52
f 32/73/53 33/76/53 120/76/53 119/73/53
f 16/41/54 17/42/54 114/42/54 113/41/54
f 15/36/55 16/41/55 113/41/55 112/36/55
f 34/78/56 35/81/56 122/81/56 121/78/56
f 17/42/57 18/48/57 115/48/57 114/42/57
f 36/84/58 37/88/58 124/88/58 123/84/58
f 18/48/59 20/50/59 128/50/59 115/48/59
f 38/92/60 39/96/60 126/96/60 125/92/60
f 20/50/61 22/52/61 129/52/61 128/50/61
f 41/113/62 1/115/62 101/115/62 127/113/62
f 1/1/63 3/4/63 102/4/63 101/1/63
f 22/52/64 24/54/64 130/54/64 129/52/64
f 29/62/65 30/66/65 117/66/65 116/62/65
f 3/4/66 5/6/66 103/6/66 102/4/66
f 31/69/67 32/73/67 119/73/67 118/69/67
f 24/54/68 26/57/68 131/57/68 130/54/68
f 33/76/69 34/78/69 121/78/69 120/76/69
f 5/6/70 7/7/70 104/7/70 103/6/70
f 35/81/71 36/84/71 123/84/71 122/81/71
f 160/50/72 161/52/72 193/52/72 192/50/72
f 110/29/73 111/33/73 143/33/73 142/29/73
f 113/41/74 114/42/74 146/42/74 145/41/74
f 112/36/75 113/41/75 145/41/75 144/36/75
f 115/48/76 128/50/76 160/50/76 147/48/76
f 114/42/77 115/48/77 147/48/77 146/42/77
f 128/50/78 129/52/78 161/52/78 160/50/78
f 116/62/79 117/66/79 149/66/79 148/62/79
f 129/52/80 130/54/80 162/54/80 161/52/80
f 118/69/81 119/73/81 151/73/81 150/69/81
f 130/54/82 131/57/82 163/57/82 162/54/82
f 120/76/83 121/78/83 153/78/83 152/76/83
f 131/57/84 132/56/84 164/56/84 163/57/84
f 122/81/85 123/84/85 155/84/85 154/81/85
f 132/56/86 116/62/86 148/62/86 164/56/86
f 124/88/87 125/92/87 157/92/87 156/88/87
f 101/1/88 102/4/88 134/4/88 133/1/88
f 117/66/89 118/69/89 150/69/89 149/66/89
f 126/96/90 127/113/90 159/113/90 158/96/90
f 102/4/91 103/6/91 135/6/91 134/4/91
f 119/73/92 120/76/92 152/76/92 151/73/92
f 127/113/93 101/115/93 133/115/93 159/113/93
f 103/6/94 104/7/94 136/7/94 135/6/94
f 121/78/95 122/81/95 154/81/95 153/78/95
f 105/11/96 106/15/96 138/15/96 137/11/96
f 104/7/97 105/11/97 137/11/97 136/7/97
f 123/84/98 124/88/98 156/88/98 155/84/98
f 107/18/99 108/22/99 140/22/99 139/18/99
f 106/15/100 107/18/100 139/18/100 138/15/100
f 125/92/101 126/96/101 158/96/101 157/92/101
f 109/26/102 110/29/102 142/29/102 141/26/102
f 108/22/103 109/26/103 141/26/103 140/22/103
f 148/62/104 149/66/104 181/66/104 180/62/104
f 161/52/105 162/54/105 194/54/105 193/52/105
f 150/69/106 151/73/106 183/73/106 182/69/106
f 162/54/107 163/57/107 195/57/107 194/54/107
f 152/76/108 153/78/108 185/78/108 184/76/108
f 163/57/109 164/56/109 196/56/109 195/57/109
f 154/81/110 155/84/110 187/84/110 186/81/110
f 164/56/111 148/62/111 180/62/111 196/56/111
f 156/88/112 157/92/112 189/92/112 188/88/112
f 133/1/113 134/4/113 166/4/113 165/1/113
f 149/66/114 150/69/114 182/69/114 181/66/114
f 158/96/115 159/113/115 191/113/115 190/96/115
f 134/4/116 135/6/116 167/6/116 166/4/116
f 151/73/117 152/76/117 184/76/117 183/73/117
f 159/113/118 133/115/118 165/115/118 191/113/118
f 135/6/119 136/7/119 168/7/119 167/6/119
f 153/78/120 154/81/120 186/81/120 185/78/120
f 137/11/121 138/15/121 170/15/121 169/11/121
f 136/7/122 137/11/122 169/11/122 168/7/122
f 155/84/123 156/88/123 188/88/123 187/84/123
f 139/18/124 140/22/124 172/22/124 171/18/124
f 138/15/125 139/18/125 171/18/125 170/15/125
f 157/92/126 158/96/126 190/96/126 189/92/126
f 141/26/127 142/29/127 174/29/127 173/26/127
f 140/22/128 141/26/128 173/26/128 172/22/128
f 143/33/129 144/36/129 176/36/129 175/33/129
f 142/29/130 143/33/130 175/33/130 174/29/130
f 145/41/131 146/42/131 178/42/131 177/41/131
f 144/36/132 145/41/132 177/41/132 176/36/132
f 147/48/133 160/50/133 192/50/133 179/48/133
f 146/42/134 147/48/134 179/48/134 178/42/134
f 24/54/135 25/53/135 27/58/135 26/57/135
f 74/116/33 72/117/33 73/118/33 71/119/33 70/120/33 68/121/33 69/122/33 75/123/33
f 79/124/34 78/125/34 77/126/34 76/127/34 75/123/34 69/122/34 67/128/34 66/129/34 65/130/34 64/131/34 63/132/34 80/133/34
f 81/134/35 80/133/35 63/132/35 62/135/35 61/136/35 60/137/35 59/138/35 58/139/35 87/140/35 85/141/35 84/142/35 83/143/35 82/144/35
f 58/139/36 57/139/36 56/145/36 55/146/36 54/147/36 53/148/36 51/149/36 52/150/36 92/151/36 91/152/36 90/153/36 89/154/36 88/155/36 86/140/36 87/140/36
f 49/156/37 48/157/37 47/158/37 46/159/37 97/160/37 96/161/37 95/162/37 94/163/37 93/164/37 92/151/37 52/150/37 50/165/37
f 46/159/38 45/166/38 43/167/38 44/168/38 100/169/38 99/170/38 98/171/38 97/160/38
